<?xml version="1.0" encoding="UTF-8" standalone="no"?>
<!-- Created with Inkscape (http://www.inkscape.org/) -->

<svg
   xmlns:dc="http://purl.org/dc/elements/1.1/"
   xmlns:cc="http://creativecommons.org/ns#"
   xmlns:rdf="http://www.w3.org/1999/02/22-rdf-syntax-ns#"
   xmlns:svg="http://www.w3.org/2000/svg"
   xmlns="http://www.w3.org/2000/svg"
   xmlns:sodipodi="http://sodipodi.sourceforge.net/DTD/sodipodi-0.dtd"
   xmlns:inkscape="http://www.inkscape.org/namespaces/inkscape"
   id="svg3004"
   version="1.1"
   inkscape:version="0.48.3.1 r9886"
   width="500"
   height="500"
   xml:space="preserve"
   sodipodi:docname="New document 3"
   inkscape:export-filename="/var/www/Scafa/html/themes/default/images/logoScafa.png"
   inkscape:export-xdpi="90"
   inkscape:export-ydpi="90"><metadata
     id="metadata3010"><rdf:RDF><cc:Work
         rdf:about=""><dc:format>image/svg+xml</dc:format><dc:type
           rdf:resource="http://purl.org/dc/dcmitype/StillImage" /><dc:title></dc:title></cc:Work></rdf:RDF></metadata><defs
     id="defs3008" /><sodipodi:namedview
     pagecolor="#ffffff"
     bordercolor="#666666"
     borderopacity="1"
     objecttolerance="10"
     gridtolerance="10"
     guidetolerance="10"
     inkscape:pageopacity="0"
     inkscape:pageshadow="2"
     inkscape:window-width="1366"
     inkscape:window-height="708"
     id="namedview3006"
     showgrid="false"
     inkscape:zoom="0.48462397"
     inkscape:cx="372.04724"
     inkscape:cy="209.11949"
     inkscape:window-x="0"
     inkscape:window-y="28"
     inkscape:window-maximized="1"
     inkscape:current-layer="g3012" /><g
     id="g3012"
     inkscape:groupmode="layer"
     inkscape:label="SCAFA"
     transform="matrix(1.25,0,0,-1.25,0,500)"><g
       id="g3876"><path
         id="path3014"
         style="fill:#d40000;fill-opacity:1;fill-rule:evenodd;stroke:#000000;stroke-width:0.99864763000000001;stroke-linecap:butt;stroke-linejoin:miter;stroke-miterlimit:22.92558478999999849;stroke-opacity:1;stroke-dasharray:none"
         d="m 378.3172,138.68509 c -1.11862,-2.34891 -2.58321,-4.89212 -4.32595,-7.48871 -7.81425,-11.64026 -21.23989,-24.35334 -34.33875,-25.41681 -0.96976,2.7384 8.40897,12.96656 10.47232,15.19058 -35.12618,-15.98259 -52.44811,17.2726 -75.55811,-6.40903 -11.89093,-12.18513 -10.41436,-29.03618 -23.06895,-35.907806 -0.31145,-0.16876 -92.64381,-48.812357 -80.0662,-31.792542 8.77221,11.870501 55.46431,39.178025 70.79934,49.08012 4.1526,2.68097 4.62506,3.62219 7.55124,7.491708 -7.51883,-7.773915 -22.29261,-11.734683 -32.50281,-15.741076 -104.96123,-41.185889 -48.60114,-9.771737 9.11818,15.853466 25.29949,11.23227 14.43274,6.8341 33.03148,25.96114 18.74864,19.28135 38.37808,21.80113 59.6613,5.45988 9.53763,-7.32242 17.30943,-6.96499 28.88926,-0.86142 -1.82201,2.49618 -11.24425,4.34832 -10.98618,6.36129 0.49237,3.84098 31.91198,9.76628 37.00739,15.01231 2.61315,2.69048 -1.32577,10.35711 2.18508,9.04085 l 2.55572,-1.45525 c 4.85319,-5.24163 2.38732,-18.47578 -0.42436,-24.3787 z"
         inkscape:connector-curvature="0" /><path
         id="path3016"
         style="fill:#800000;fill-opacity:1;fill-rule:evenodd;stroke:#000000;stroke-width:0.99864763000000001;stroke-linecap:butt;stroke-linejoin:miter;stroke-miterlimit:22.92558478999999849;stroke-opacity:1;stroke-dasharray:none"
         d="m 40.01031,276.50004 c 24.672355,-15.26756 50.03279,-45.79281 67.83176,-40.57567 19.7797,5.79758 34.04298,30.1613 53.70853,40.57567 0,-15.95669 0,-31.9229 0,-47.87008 0,-15.94665 0,-31.90352 0,-47.85018 -14.70649,0 -29.41333,0 -44.09516,0 -14.69434,0 -29.388144,0 -44.070501,0 -0.644215,15.94666 -4.979497,31.90652 -16.687403,47.85018 -11.712133,15.95017 -16.067497,31.91339 -16.687226,47.87008 z"
         inkscape:connector-curvature="0" /><path
         id="path3018"
         style="fill:#800000;fill-opacity:1;fill-rule:evenodd;stroke:#800000;stroke-width:0.99864763000000001;stroke-linecap:butt;stroke-linejoin:miter;stroke-miterlimit:22.92558478999999849;stroke-opacity:1;stroke-dasharray:none"
         d="m 167.80937,263.50793 c 39.9274,-15.81682 62.96201,-50.4332 80.99139,-90.90705 19.01588,-42.6873 33.10599,-88.857088 57.06278,-121.121208 C 283.76488,51.348433 215.26547,86.481133 153.44656,74.547744 84.929897,61.321344 33.277146,24.443961 31.447026,47.748616 c -1.442217,29.55796 1.817612,74.306144 20.933725,117.548344 18.980293,42.93462 53.874299,81.65868 115.428619,98.21097 z"
         inkscape:connector-curvature="0" /><path
         id="path3020"
         style="fill:#d40000;fill-opacity:1;fill-rule:evenodd;stroke:#000000;stroke-width:0.99864763000000001;stroke-linecap:butt;stroke-linejoin:miter;stroke-miterlimit:22.92558478999999849;stroke-opacity:1;stroke-dasharray:none"
         d="m 216.54192,55.397633 c -11.52998,0 -20.87682,-7.228525 -20.87682,-16.14448 0,-8.916836 9.34684,-16.14448 20.87682,-16.14448 11.53052,0 35.90816,-6.132989 35.90816,2.783319 0,8.916483 -24.37764,29.505641 -35.90816,29.505641 z"
         inkscape:connector-curvature="0" /><path
         id="path3022"
         style="fill:#d40000;fill-opacity:1;fill-rule:evenodd;stroke:#000000;stroke-width:0.99864763000000001;stroke-linecap:butt;stroke-linejoin:miter;stroke-miterlimit:22.92558478999999849;stroke-opacity:1;stroke-dasharray:none"
         d="m 98.439737,59.622111 c 11.628813,0 21.055623,-7.290004 21.055623,-16.282765 0,-8.992761 -9.42681,-16.282765 -21.055623,-16.282765 -11.62881,0 -36.215904,-6.185484 -36.215904,2.807276 0,8.992761 24.587094,29.758254 36.215904,29.758254 z"
         inkscape:connector-curvature="0" /><path
         id="path3024"
         style="fill:#d40000;fill-opacity:1;fill-rule:evenodd;stroke:#000000;stroke-width:0.99864763000000001;stroke-linecap:butt;stroke-linejoin:miter;stroke-miterlimit:22.92558478999999849;stroke-opacity:1;stroke-dasharray:none"
         d="m 161.29535,249.23902 c 52.62145,0 95.27985,-54.07952 95.27985,-120.79003 0,-66.710676 -42.07672,-92.716206 -94.69853,-92.716206 -52.62145,0 -95.861711,26.00553 -95.861711,92.716206 0,66.71051 42.658401,120.79003 95.280391,120.79003 z"
         inkscape:connector-curvature="0" /><path
         id="path3026"
         style="fill:#d40000;fill-opacity:1;fill-rule:evenodd;stroke:#000000;stroke-width:0.99864763000000001;stroke-linecap:butt;stroke-linejoin:miter;stroke-miterlimit:22.92558478999999849;stroke-opacity:1;stroke-dasharray:none"
         d="m 161.30486,330.45537 c 29.48309,0 123.88109,62.72226 142.11888,45.49915 15.79339,-14.91506 -39.89165,-79.89145 -39.89165,-101.49634 0,-46.55224 -44.59933,-84.29016 -99.61514,-84.29016 -55.01581,0 -99.615317,37.73792 -99.615317,84.29016 0,22.6895 -59.9193837,84.63877 -42.689762,99.78953 18.120812,15.93485 111.491279,-43.79234 139.692989,-43.79234 z"
         inkscape:connector-curvature="0" /><path
         id="path3028"
         style="fill:none;stroke:#000000;stroke-width:0.99864763000000001;stroke-linecap:butt;stroke-linejoin:miter;stroke-miterlimit:22.92558478999999849;stroke-opacity:1;stroke-dasharray:none"
         d="m 107.46702,320.58956 c -18.802015,5.85854 -9.837264,15.57426 -49.149522,22.2366 -1.224484,0.20717 -1.021196,0.45784 -1.778153,0.39795"
         inkscape:connector-curvature="0" /><path
         id="path3030"
         style="fill:none;stroke:#000000;stroke-width:0.99864763000000001;stroke-linecap:butt;stroke-linejoin:miter;stroke-miterlimit:22.92558478999999849;stroke-opacity:1;stroke-dasharray:none"
         d="m 84.832481,314.49551 c -9.388767,0 -22.182166,5.17732 -25.246635,13.05852"
         inkscape:connector-curvature="0" /><path
         id="path3032"
         style="fill:none;stroke:#000000;stroke-width:0.99864763000000001;stroke-linecap:butt;stroke-linejoin:miter;stroke-miterlimit:22.92558478999999849;stroke-opacity:1;stroke-dasharray:none"
         d="m 220.04626,322.02421 c 20.21975,6.30034 10.57873,16.7487 52.85522,23.91293 1.31679,0.22319 1.098,0.49289 1.91203,0.42842"
         inkscape:connector-curvature="0" /><path
         id="path3034"
         style="fill:none;stroke:#000000;stroke-width:0.99864763000000001;stroke-linecap:butt;stroke-linejoin:miter;stroke-miterlimit:22.92558478999999849;stroke-opacity:1;stroke-dasharray:none"
         d="m 244.38709,315.4709 c 10.09692,0 23.85497,5.56769 27.15021,14.04307"
         inkscape:connector-curvature="0" /><path
         id="path3036"
         style="fill:#ffffff;fill-opacity:1;fill-rule:evenodd;stroke:#000000;stroke-width:0.99864763000000001;stroke-linecap:butt;stroke-linejoin:miter;stroke-miterlimit:22.92558478999999849;stroke-opacity:1;stroke-dasharray:none"
         d="m 164.9237,224.45639 c 31.0111,0 56.15081,40.56757 56.15081,22.41734 0,-18.15041 -25.13971,-32.86377 -56.15081,-32.86377 -31.0111,0 -56.15098,14.71336 -56.15098,32.86377 0,18.15023 25.13988,-22.41734 56.15098,-22.41734 z"
         inkscape:connector-curvature="0" /><path
         id="path3038"
         style="fill:#ffffff;fill-opacity:1;fill-rule:evenodd;stroke:#000000;stroke-width:0.99864763000000001;stroke-linecap:butt;stroke-linejoin:miter;stroke-miterlimit:22.92558478999999849;stroke-opacity:1;stroke-dasharray:none"
         d="m 119.50135,297.37845 c 10.93827,0 19.80508,-2.62407 19.80508,-12.84079 0,-10.21671 -8.86681,-18.49937 -19.80508,-18.49937 -10.93826,0 -19.805244,8.28266 -19.805244,18.49937 0,10.21672 8.866984,12.84079 19.805244,12.84079 z"
         inkscape:connector-curvature="0" /><path
         id="path3040"
         style="fill:#373535;fill-opacity:1;fill-rule:evenodd;stroke:#000000;stroke-width:0.99864763000000001;stroke-linecap:butt;stroke-linejoin:miter;stroke-miterlimit:22.92558478999999849;stroke-opacity:1;stroke-dasharray:none"
         d="m 119.00194,286.71376 c 1.32225,0 2.39383,-0.97416 2.39383,-2.1761 0,-1.20193 -1.07158,-2.17627 -2.39383,-2.17627 -1.32225,0 -2.39383,0.97434 -2.39383,2.17627 0,1.20194 1.07158,2.1761 2.39383,2.1761 z"
         inkscape:connector-curvature="0" /><path
         id="path3042"
         style="fill:#a55f4d;fill-opacity:1;fill-rule:evenodd;stroke:#000000;stroke-width:0.99864763000000001;stroke-linecap:butt;stroke-linejoin:miter;stroke-miterlimit:22.92558478999999849;stroke-opacity:1;stroke-dasharray:none"
         d="m 107.03156,316.23631 c -2.02689,0.20981 -18.453402,23.43396 9.57602,33.40493 4.98056,1.77181 -5.07832,-5.39048 -0.5468,-11.75265 4.28297,-6.01373 8.28971,-3.80557 14.91102,-3.80557 0,-19.70871 -26.05803,-17.62756 -23.94024,-17.84671 z"
         inkscape:connector-curvature="0" /><path
         id="path3044"
         style="fill:#a55f4d;fill-opacity:1;fill-rule:evenodd;stroke:#000000;stroke-width:0.99864763000000001;stroke-linecap:butt;stroke-linejoin:miter;stroke-miterlimit:22.92558478999999849;stroke-opacity:1;stroke-dasharray:none"
         d="m 217.83423,316.23631 c 2.06934,0.21421 18.84148,23.92685 -9.77737,34.1071 -5.08537,1.80916 5.18525,-5.50339 0.55842,-11.99945 -4.37333,-6.14038 -8.46411,-3.8859 -15.22475,-3.8859 0,-20.12268 26.60588,-17.99802 24.4437,-18.22175 z"
         inkscape:connector-curvature="0" /><path
         id="path3046"
         style="fill:#ffffff;fill-opacity:1;fill-rule:evenodd;stroke:#000000;stroke-width:0.99864763000000001;stroke-linecap:butt;stroke-linejoin:miter;stroke-miterlimit:22.92558478999999849;stroke-opacity:1;stroke-dasharray:none"
         d="m 200.46333,298.24921 c 10.93826,0 19.80525,-2.62407 19.80525,-12.84079 0,-10.21672 -8.86699,-18.49938 -19.80525,-18.49938 -10.93827,0 -19.80525,8.28266 -19.80525,18.49938 0,10.21672 8.86698,12.84079 19.80525,12.84079 z"
         inkscape:connector-curvature="0" /><path
         id="path3048"
         style="fill:#373535;fill-opacity:1;fill-rule:evenodd;stroke:#000000;stroke-width:0.99864763000000001;stroke-linecap:butt;stroke-linejoin:miter;stroke-miterlimit:22.92558478999999849;stroke-opacity:1;stroke-dasharray:none"
         d="m 199.96392,287.58469 c 1.32225,0 2.394,-0.97433 2.394,-2.17627 0,-1.20194 -1.07175,-2.1761 -2.394,-2.1761 -1.32226,0 -2.39383,0.97416 -2.39383,2.1761 0,1.20194 1.07157,2.17627 2.39383,2.17627 z"
         inkscape:connector-curvature="0" /><path
         id="path3050"
         style="fill:#e7e8e9;fill-opacity:1;fill-rule:evenodd;stroke:#000000;stroke-width:0.99864763000000001;stroke-linecap:butt;stroke-linejoin:miter;stroke-miterlimit:22.92558478999999849;stroke-opacity:1;stroke-dasharray:none"
         d="m 115.58339,249.58817 c 1.87152,0.19677 -23.504945,-25.39901 2.3889,-34.60986 4.60058,-1.63652 -4.69095,4.97985 -0.5054,10.85723 3.95689,5.55484 13.69164,8.18243 19.80877,8.18243 l 0,0.005 c -0.29313,0.0749 -0.57727,0.2047 -0.83799,0.39196 l -19.84506,14.25552 c -0.34651,0.24909 -0.61022,0.5697 -0.78549,0.92818 -0.34299,-0.0194 -0.43987,-0.0335 -0.22373,-0.0106 z"
         inkscape:connector-curvature="0" /><path
         id="path3052"
         style="fill:#e7e8e9;fill-opacity:1;fill-rule:evenodd;stroke:#000000;stroke-width:0.99864763000000001;stroke-linecap:butt;stroke-linejoin:miter;stroke-miterlimit:22.92558478999999849;stroke-opacity:1;stroke-dasharray:none"
         d="m 213.28104,249.02481 c -1.86694,0.19624 23.44805,-25.33736 -2.38273,-34.52601 -4.58966,-1.63229 4.67932,4.96805 0.50381,10.83099 -3.94738,5.54127 -13.65869,8.16287 -19.76085,8.16287 l 0,0.005 c 0.2926,0.0743 0.57586,0.20417 0.83587,0.39107 l 19.79732,14.22082 c 0.34545,0.24874 0.60863,0.56829 0.78338,0.92589 0.34263,-0.0196 0.43899,-0.0329 0.2232,-0.0106 z"
         inkscape:connector-curvature="0" /><path
         id="path3054"
         style="fill:#000000;fill-opacity:1;fill-rule:nonzero;stroke:#000000"
         d="M 250.16512,208.89465 118.11216,80.531878 l -5.22119,5.3711 132.05296,128.362772 5.22119,-5.3711 z m 41.01448,50.31499 -10.63509,0.1508 29.40223,12.86879 -13.68617,-29.0367 0.15026,10.63509 -39.4856,-38.86287 0,0 1.10752,-1.23136 1.07562,-1.11861 1.05009,-1.00358 1.03124,-0.88749 1.01926,-0.76841 1.01309,-0.64862 1.01468,-0.52689 1.02172,-0.40252 1.03652,-0.27763 1.05714,-0.14974 1.08514,-0.0204 1.11914,0.10975 1.16036,0.24327 1.2074,0.37751 1.262,0.51386 1.32225,0.65214 1.38973,0.79184 1.46406,0.93382 1.54439,1.07756 1.63194,1.22255 1.72618,1.37017 1.8266,1.51849 1.93353,1.66982 2.04785,1.82219 2.16764,1.97633 2.29553,2.13276 2.42889,2.2906 2.56963,2.45021 2.71638,2.61209 2.87034,2.77539 3.03047,2.94027 3.19747,3.10746 -10.47796,-0.0106 29.40224,12.86914 -13.6971,-29.02613 0.16119,10.62417 0,0 -3.70164,-3.56881 -3.50452,-3.37169 -3.31602,-3.17721 -3.13599,-2.98361 -2.96564,-2.79248 -2.80287,-2.60311 -2.64997,-2.41479 -2.50534,-2.22912 -2.36934,-2.04486 -2.24304,-1.86201 -2.12484,-1.68179 -2.01526,-1.50317 -1.91503,-1.32577 -1.8236,-1.1505 -1.74081,-0.97716 -1.66682,-0.8054 -1.60146,-0.63576 -1.54545,-0.46788 -1.49753,-0.30105 -1.4586,-0.13688 -1.42918,0.0255 -1.40804,0.18673 -1.39571,0.34545 -1.39219,0.50347 -1.3973,0.65813 -1.41156,0.81244 -1.43464,0.96412 -1.46653,1.11421 -1.50704,1.26236 -1.55602,1.4091 -1.61485,1.55337 -1.68144,1.69695 -10.61819,-10.63475 -5.23158,5.38203 10.77444,10.47338 0,0 -1.6633,1.74468 -1.52149,1.67281 -1.37721,1.60886 -1.23153,1.55461 -1.08303,1.50898 -0.93329,1.47111 -0.78039,1.4431 -0.62625,1.42354 -0.46981,1.41227 -0.3111,1.41015 -0.15044,1.41668 0.0123,1.43217 0.17686,1.45561 0.34352,1.48855 0.5128,1.52994 0.68314,1.57997 0.85684,1.63934 1.03177,1.70628 1.2088,1.78309 1.38831,1.86817 1.56941,1.96136 1.75278,2.06441 1.93793,2.17557 2.12625,2.29553 2.31491,2.42484 2.50727,2.5617 2.70106,2.70793 2.89658,2.86276 3.0946,3.0266 3.29471,3.1994 3.49641,3.37962 3.70058,3.57022 -10.62417,0.13988 29.40223,12.86879 -13.6971,-29.02578 0.16119,10.62417 0,0 -3.21174,-3.09248 -3.03945,-2.93164 -2.86893,-2.77733 -2.70035,-2.63006 -2.5337,-2.48931 -2.37005,-2.35595 -2.2071,-2.22807 -2.0468,-2.10827 -1.88896,-1.99501 -1.73235,-1.8879 -1.57838,-1.78819 -1.42619,-1.69483 -1.27575,-1.60834 -1.12812,-1.52906 -0.98227,-1.45613 -0.83781,-1.39025 -0.69618,-1.33071 -0.55561,-1.27839 -0.41855,-1.23276 -0.28256,-1.19348 -0.14833,-1.16142 -0.0176,-1.13658 0.11239,-1.11756 0.24064,-1.10558 0.36606,-1.10099 0.4899,-1.10258 0.61127,-1.11104 0.73053,-1.12654 0.84786,-1.14856 0.96376,-1.17745 1.07704,-1.21286 1.18802,-1.25601 40.41379,39.28442 z"
         inkscape:connector-curvature="0" /><path
         id="path3056"
         style="fill:#d40000;fill-opacity:1;fill-rule:evenodd;stroke:#000000;stroke-width:0.99864763000000001;stroke-linecap:butt;stroke-linejoin:miter;stroke-miterlimit:22.92558478999999849;stroke-opacity:1;stroke-dasharray:none"
         d="m 66.574793,181.24114 c 6.121011,8.6903 34.098467,-0.47527 62.487967,-20.4713 28.39002,-19.99797 46.44266,-43.25471 40.31953,-51.94535 -6.12048,-8.69012 -34.09811,0.47545 -62.48761,20.4713 -28.390549,19.99797 -46.441954,43.25471 -40.319887,51.94535 z"
         inkscape:connector-curvature="0" /><path
         id="path3058"
         style="fill:#d40000;fill-opacity:1;fill-rule:evenodd;stroke:#000000;stroke-width:0.99864763000000001;stroke-linecap:butt;stroke-linejoin:miter;stroke-miterlimit:22.92558478999999849;stroke-opacity:1;stroke-dasharray:none"
         d="m 260.15106,181.01249 c -6.20997,8.81642 -34.59242,-0.4818 -63.39342,-20.76849 -28.801,-20.28704 -47.11418,-43.87972 -40.90368,-52.69632 6.21032,-8.816951 34.59242,0.48145 63.39342,20.76849 28.801,20.28651 47.11401,43.87937 40.90368,52.69632 z"
         inkscape:connector-curvature="0" /></g></g></svg>